<svg width="139" height="32" viewBox="0 0 139 32" fill="none" xmlns="http://www.w3.org/2000/svg">
<path d="M9.82 31.52C7.39 31.52 5.29 30.785 3.52 29.315C1.54 27.785 0.55 25.85 0.55 23.51C0.55 21.11 1.405 18.965 3.115 17.075C4.765 15.245 6.79 14.105 9.19 13.655C9.13 13.325 9.07 12.995 9.01 12.665C8.98 12.335 8.965 12.005 8.965 11.675C8.965 10.085 9.325 8.51 10.045 6.95C10.825 5.24 11.83 3.995 13.06 3.215C15.43 1.655 18.19 0.875 21.34 0.875C23.59 0.875 26.185 1.31 29.125 2.18C29.545 2.3 30.37 2.585 31.6 3.035C32.86 3.455 34.525 4.055 36.595 4.835C38.425 3.635 40.12 3.035 41.68 3.035C43.18 3.035 43.93 3.575 43.93 4.655C43.93 5.765 42.955 6.32 41.005 6.32C39.925 6.32 38.59 6.05 37 5.51C35.08 7.49 33.205 10.655 31.375 15.005C29.425 19.685 26.935 23.345 23.905 25.985C22.855 26.915 21.805 27.71 20.755 28.37C19.735 29.03 18.715 29.57 17.695 29.99C16.675 30.38 15.565 30.725 14.365 31.025C13.165 31.355 11.86 31.52 10.45 31.52H9.82ZM10.495 30.845C13.225 30.845 15.94 29.765 18.64 27.605C19.75 26.735 20.8 25.745 21.79 24.635C22.78 23.495 23.71 22.235 24.58 20.855C25 20.165 25.525 19.31 26.155 18.29C26.785 17.24 27.52 16.04 28.36 14.69C29.11 13.55 29.89 12.41 30.7 11.27C31.54 10.13 32.41 8.99 33.31 7.85C33.73 7.34 34.165 6.875 34.615 6.455C35.095 6.005 35.59 5.585 36.1 5.195C30.07 3.215 25.525 2.225 22.465 2.225C18.835 2.225 15.91 3.23 13.69 5.24C12.76 6.08 11.98 7.16 11.35 8.48C10.78 9.74 10.495 11.03 10.495 12.35C10.495 12.56 10.495 12.755 10.495 12.935C10.495 13.115 10.51 13.295 10.54 13.475C10.69 13.445 10.825 13.43 10.945 13.43C11.065 13.43 11.185 13.43 11.305 13.43C14.515 13.43 16.495 14.75 17.245 17.39C18.565 16.82 19.705 16.01 20.665 14.96C21.685 13.79 22.33 12.545 22.6 11.225C22.6 11.225 22.585 11.21 22.555 11.18C22.555 11.15 22.555 11.105 22.555 11.045C22.555 10.805 22.63 10.685 22.78 10.685C22.9 10.685 22.96 10.76 22.96 10.91C22.96 10.94 22.96 10.985 22.96 11.045C22.96 11.105 22.945 11.18 22.915 11.27C22.135 14.48 20.275 16.67 17.335 17.84C17.365 18.05 17.38 18.26 17.38 18.47C17.41 18.65 17.425 18.845 17.425 19.055C17.425 20.915 16.69 22.49 15.22 23.78C13.81 25.07 12.16 25.715 10.27 25.715C10.06 25.715 9.955 25.64 9.955 25.49C9.955 25.28 10.105 25.16 10.405 25.13C12.325 24.92 13.855 24.305 14.995 23.285C16.255 22.145 16.885 20.645 16.885 18.785C16.885 18.635 16.87 18.5 16.84 18.38C16.84 18.26 16.84 18.14 16.84 18.02C16.18 18.23 15.475 18.335 14.725 18.335C13.435 18.335 12.31 17.96 11.35 17.21C10.87 16.82 10.465 16.385 10.135 15.905C9.805 15.425 9.55 14.87 9.37 14.24C7.3 14.96 5.59 16.25 4.24 18.11C2.92 19.97 2.26 21.965 2.26 24.095C2.26 26.345 3.085 28.085 4.735 29.315C6.205 30.335 8.125 30.845 10.495 30.845ZM41.005 5.96C42.655 5.96 43.48 5.525 43.48 4.655C43.48 3.725 42.85 3.26 41.59 3.26C40.15 3.26 38.755 3.89 37.405 5.15C38.935 5.69 40.135 5.96 41.005 5.96ZM14.905 17.885C15.505 17.885 16.12 17.78 16.75 17.57C16.42 16.43 15.76 15.515 14.77 14.825C13.78 14.165 12.7 13.835 11.53 13.835C11.41 13.835 11.26 13.85 11.08 13.88C10.93 13.88 10.78 13.895 10.63 13.925C10.9 14.975 11.395 15.89 12.115 16.67C12.925 17.48 13.855 17.885 14.905 17.885ZM41.3281 11.9C40.3681 11.9 39.8881 11.435 39.8881 10.505C39.8881 9.485 40.3531 8.975 41.2831 8.975C42.2431 8.975 42.7231 9.44 42.7231 10.37C42.7231 11.39 42.2581 11.9 41.3281 11.9ZM36.0181 29.45C34.0381 29.45 33.0481 28.355 33.0481 26.165C33.0481 24.575 33.5131 22.895 34.4431 21.125L37.8181 14.51H37.9531C38.0431 14.63 38.2231 14.69 38.4931 14.69C39.0631 14.69 39.8131 14.345 40.7431 13.655L40.8331 13.745L37.0081 21.17C35.4181 24.23 34.6231 26.36 34.6231 27.56C34.6231 28.1 34.7731 28.475 35.0731 28.685C35.3731 28.895 35.7181 29 36.1081 29C36.5281 29 36.9331 28.91 37.3231 28.73C37.7431 28.55 38.1031 28.355 38.4031 28.145C39.2131 27.515 39.8881 26.795 40.4281 25.985C40.9981 25.145 41.4931 24.305 41.9131 23.465C42.3331 22.625 42.7081 21.92 43.0381 21.35C43.1281 21.2 43.2181 21.155 43.3081 21.215C43.3981 21.245 43.4131 21.335 43.3531 21.485C42.7531 22.745 42.0931 24.035 41.3731 25.355C40.6531 26.675 39.7381 27.725 38.6281 28.505C38.2381 28.775 37.8181 29 37.3681 29.18C36.9481 29.36 36.4981 29.45 36.0181 29.45ZM45.9353 29.45C44.7653 29.45 43.8053 29.12 43.0553 28.46C42.3053 27.8 41.9303 26.765 41.9303 25.355C41.9303 24.215 42.1553 23.015 42.6053 21.755C43.0553 20.495 43.7303 19.265 44.6303 18.065C46.5803 15.485 48.6053 14.195 50.7053 14.195C52.6553 14.195 53.6303 15.08 53.6303 16.85C53.6303 17.51 53.4203 18.23 53.0003 19.01C52.4903 19.88 51.9353 20.315 51.3353 20.315C50.8853 20.315 50.6603 20.135 50.6603 19.775C50.6603 19.385 51.0653 18.905 51.8753 18.335C52.6853 17.735 53.0903 17.06 53.0903 16.31C53.0903 15.29 52.5653 14.78 51.5153 14.78C50.4053 14.78 49.1753 15.59 47.8253 17.21C46.8653 18.41 46.0553 19.7 45.3953 21.08C45.0953 21.68 44.7953 22.475 44.4953 23.465C44.1953 24.425 44.0453 25.355 44.0453 26.255C44.0453 27.005 44.2103 27.65 44.5403 28.19C44.8703 28.73 45.4553 29 46.2953 29C47.0753 29 47.8853 28.79 48.7253 28.37C49.5653 27.92 50.2853 27.395 50.8853 26.795C51.3953 26.285 51.9653 25.595 52.5953 24.725C53.2553 23.825 53.9153 22.73 54.5753 21.44C54.6653 21.29 54.7553 21.215 54.8453 21.215C55.0253 21.215 55.0253 21.365 54.8453 21.665C54.3353 22.685 53.7803 23.66 53.1803 24.59C52.6103 25.52 51.8453 26.42 50.8853 27.29C50.3153 27.86 49.5953 28.37 48.7253 28.82C47.8553 29.24 46.9253 29.45 45.9353 29.45ZM51.1029 29.36C51.0729 29.36 51.0579 29.33 51.0579 29.27C51.0579 29.21 51.0729 29.165 51.1029 29.135C58.9329 10.235 65.6829 0.784998 71.3529 0.784998C72.7329 0.784998 73.4229 1.37 73.4229 2.54C73.4229 3.77 72.8679 5.135 71.7579 6.635C69.6579 9.575 66.7179 11.915 62.9379 13.655C61.8879 14.135 61.0479 14.45 60.4179 14.6C60.3579 14.63 60.2529 14.645 60.1029 14.645C59.1129 16.355 58.1679 18.05 57.2679 19.73C56.3679 21.38 55.5279 23.03 54.7479 24.68C59.0379 17.42 62.6979 13.79 65.7279 13.79C66.8379 13.79 67.3929 14.315 67.3929 15.365C67.3929 17.075 66.1029 18.455 63.5229 19.505C63.2529 19.625 62.8779 19.76 62.3979 19.91C61.9179 20.06 61.3179 20.225 60.5979 20.405H60.6879C61.0179 20.405 61.3029 20.675 61.5429 21.215C61.6029 21.425 61.6629 21.65 61.7229 21.89C61.7829 22.1 61.8129 22.325 61.8129 22.565C61.8129 23.135 61.6779 23.96 61.4079 25.04C61.2879 25.61 61.1979 26.105 61.1379 26.525C61.0779 26.915 61.0479 27.245 61.0479 27.515C61.0479 28.355 61.4079 28.775 62.1279 28.775C63.2679 28.775 64.5279 27.815 65.9079 25.895C66.4179 25.265 66.8679 24.605 67.2579 23.915C67.6779 23.225 68.1129 22.46 68.5629 21.62C68.6229 21.5 68.7279 21.425 68.8779 21.395C69.0279 21.365 69.0279 21.485 68.8779 21.755C68.4579 22.595 68.0079 23.405 67.5279 24.185C67.0779 24.965 66.5829 25.7 66.0429 26.39C64.5729 28.28 63.1629 29.225 61.8129 29.225C59.8329 29.225 58.8429 28.445 58.8429 26.885C58.8429 26.255 59.0229 25.34 59.3829 24.14C59.7429 22.91 59.9229 22.025 59.9229 21.485C59.9229 20.765 59.5179 20.405 58.7079 20.405C58.5879 20.405 58.5279 20.36 58.5279 20.27C58.5279 20.15 58.6179 20.09 58.7979 20.09C59.3379 20.06 59.8929 19.97 60.4629 19.82C61.0629 19.64 61.6629 19.385 62.2629 19.055C63.4029 18.485 64.3479 17.75 65.0979 16.85C65.7879 15.98 66.1329 15.26 66.1329 14.69C66.1329 14.33 65.9229 14.15 65.5029 14.15C64.5129 14.15 63.1479 14.975 61.4079 16.625C60.7779 17.225 60.1779 17.84 59.6079 18.47C59.0679 19.07 58.5429 19.715 58.0329 20.405C56.9229 21.875 55.6629 23.9 54.2529 26.48C54.0729 26.78 53.8629 27.155 53.6229 27.605C53.4129 28.025 53.1579 28.505 52.8579 29.045C52.8579 29.045 52.8429 29.045 52.8129 29.045C52.8129 29.075 52.7979 29.09 52.7679 29.09C52.5579 28.91 52.3629 28.82 52.1829 28.82C51.8829 28.82 51.6429 28.91 51.4629 29.09C51.2529 29.27 51.1329 29.36 51.1029 29.36ZM60.3729 14.24H60.4629C62.4429 13.73 64.6029 12.485 66.9429 10.505C70.9329 7.175 72.9279 4.46 72.9279 2.36C72.9279 1.64 72.5529 1.28 71.8029 1.28C70.0929 1.28 67.9329 3.035 65.3229 6.545C64.7529 7.295 64.0629 8.315 63.2529 9.605C62.4429 10.865 61.4829 12.41 60.3729 14.24ZM72.0494 30.26C69.7394 30.26 68.5844 29.615 68.5844 28.325C68.5844 26.885 69.5444 26.165 71.4644 26.165C72.3644 26.165 74.5094 26.69 77.8994 27.74C78.7094 27.05 79.5044 26.21 80.2844 25.22C81.0944 24.2 81.8594 23 82.5794 21.62C83.1794 20.48 83.7494 19.325 84.2894 18.155C84.8294 16.955 85.3844 15.77 85.9544 14.6C88.5044 9.35 91.4294 5.6 94.7294 3.35C93.7994 3.08 92.7344 2.87 91.5344 2.72C90.3644 2.57 89.0744 2.495 87.6644 2.495C86.1044 2.495 84.6344 2.63 83.2544 2.9C81.8744 3.14 80.5694 3.515 79.3394 4.025C76.4294 5.195 74.2694 6.95 72.8594 9.29C71.9894 10.76 71.5544 12.215 71.5544 13.655C71.5544 15.185 72.0344 16.46 72.9944 17.48C73.9544 18.53 75.1994 19.055 76.7294 19.055C78.4394 19.055 79.9544 18.44 81.2744 17.21C82.5944 15.95 83.2544 14.48 83.2544 12.8C83.2544 11.63 82.9394 10.67 82.3094 9.92C81.6494 9.14 80.7344 8.75 79.5644 8.75C78.6944 8.75 77.9144 9.02 77.2244 9.56C76.5344 10.16 76.1894 10.91 76.1894 11.81C76.1894 12.53 76.5794 12.89 77.3594 12.89C77.4194 12.89 77.4644 12.845 77.4944 12.755C77.5844 12.665 77.6594 12.62 77.7194 12.62C77.7794 12.65 77.8094 12.695 77.8094 12.755C77.8094 13.055 77.6444 13.205 77.3144 13.205C76.2944 13.205 75.7844 12.725 75.7844 11.765C75.7844 10.805 76.2194 9.965 77.0894 9.245C77.9294 8.555 78.8294 8.21 79.7894 8.21C81.0794 8.21 82.1294 8.63 82.9394 9.47C83.7794 10.31 84.1994 11.375 84.1994 12.665C84.1994 14.645 83.4194 16.31 81.8594 17.66C80.3894 18.92 78.6494 19.55 76.6394 19.55C74.7494 19.55 73.2044 18.995 72.0044 17.885C70.7144 16.685 70.0694 15.2 70.0694 13.43C70.0694 12.17 70.3844 10.94 71.0144 9.74C72.3944 7.01 74.8244 4.97 78.3044 3.62C81.1544 2.51 84.3944 1.955 88.0244 1.955C90.8744 1.955 93.3794 2.255 95.5394 2.855C96.4994 2.315 97.4144 1.91 98.2844 1.64C99.1544 1.34 100.009 1.19 100.849 1.19C101.089 1.19 101.209 1.22 101.209 1.28C101.209 1.37 101.164 1.415 101.074 1.415C100.954 1.415 100.789 1.43 100.579 1.46C100.399 1.46 100.189 1.475 99.9494 1.505C98.6294 1.625 97.3394 2.135 96.0794 3.035C99.2294 4.055 100.804 5.78 100.804 8.21C100.804 8.48 100.774 8.75 100.714 9.02C100.684 9.26 100.639 9.5 100.579 9.74C100.219 11.27 98.7794 12.515 96.2594 13.475C94.4594 14.105 92.4344 14.51 90.1844 14.69H91.5794C96.8894 14.69 99.5444 16.505 99.5444 20.135C99.5444 22.205 98.7494 24.035 97.1594 25.625C95.7794 27.005 94.0094 28.04 91.8494 28.73C90.9794 29.03 90.0644 29.24 89.1044 29.36C88.1444 29.51 87.1544 29.585 86.1344 29.585C84.9044 29.585 83.6294 29.48 82.3094 29.27C81.0194 29.06 79.6994 28.73 78.3494 28.28C75.9494 29.6 73.8494 30.26 72.0494 30.26ZM88.2044 14.555C94.5644 13.955 98.0294 12.335 98.5994 9.695C98.7194 9.125 98.7794 8.555 98.7794 7.985C98.7794 5.885 97.6544 4.415 95.4044 3.575C92.7944 5.765 90.3944 9.425 88.2044 14.555ZM84.5144 28.955C87.6044 28.955 90.3494 28.22 92.7494 26.75C95.6594 25.04 97.1144 22.775 97.1144 19.955C97.1144 16.565 94.6394 14.87 89.6894 14.87C89.3894 14.87 89.1044 14.885 88.8344 14.915C88.5644 14.915 88.3094 14.93 88.0694 14.96C86.5994 18.41 85.4294 20.855 84.5594 22.295C83.0594 24.695 81.1394 26.6 78.7994 28.01C80.8694 28.64 82.7744 28.955 84.5144 28.955ZM72.3644 29.9C74.1644 29.9 75.8894 29.285 77.5394 28.055C76.2494 27.605 75.1094 27.275 74.1194 27.065C73.1594 26.855 72.3794 26.75 71.7794 26.75C69.9494 26.75 69.0344 27.29 69.0344 28.37C69.0344 29.39 70.1444 29.9 72.3644 29.9ZM104.859 29.27C104.109 29.27 103.509 29.015 103.059 28.505C102.639 27.995 102.429 27.38 102.429 26.66C102.429 26 102.624 25.13 103.014 24.05C103.434 22.97 104.019 21.68 104.769 20.18C105.099 19.52 105.519 18.725 106.029 17.795C106.569 16.835 107.214 15.74 107.964 14.51H108.054C108.264 14.66 108.504 14.735 108.774 14.735C109.404 14.735 110.124 14.42 110.934 13.79L111.024 13.88C110.574 14.39 109.794 15.635 108.684 17.615C108.324 18.245 107.979 18.83 107.649 19.37C107.349 19.91 107.049 20.42 106.749 20.9C104.979 23.93 104.094 26.15 104.094 27.56C104.094 28.37 104.469 28.775 105.219 28.775C106.899 28.775 109.224 26.15 112.194 20.9C112.614 20.15 113.109 19.22 113.679 18.11C114.249 17 114.909 15.71 115.659 14.24H115.749C115.959 14.33 116.154 14.405 116.334 14.465C116.514 14.525 116.694 14.555 116.874 14.555C117.534 14.555 117.999 14.255 118.269 13.655L118.404 13.7L114.894 20.495C112.824 24.455 111.789 26.96 111.789 28.01C111.789 28.55 112.044 28.82 112.554 28.82C112.914 28.82 113.349 28.67 113.859 28.37C114.399 28.07 114.954 27.605 115.524 26.975C116.244 26.135 116.859 25.34 117.369 24.59C117.909 23.81 118.524 22.76 119.214 21.44C119.304 21.29 119.394 21.215 119.484 21.215C119.664 21.215 119.664 21.365 119.484 21.665C118.944 22.685 118.359 23.705 117.729 24.725C117.129 25.715 116.394 26.645 115.524 27.515C114.384 28.655 113.379 29.225 112.509 29.225C111.729 29.225 111.129 29.03 110.709 28.64C110.319 28.25 110.124 27.62 110.124 26.75C110.124 26.03 110.274 25.235 110.574 24.365C108.564 27.635 106.659 29.27 104.859 29.27ZM115.746 29.36C115.716 29.36 115.701 29.33 115.701 29.27C115.701 29.21 115.716 29.165 115.746 29.135C123.576 10.235 130.326 0.784998 135.996 0.784998C137.376 0.784998 138.066 1.37 138.066 2.54C138.066 3.77 137.511 5.135 136.401 6.635C134.301 9.575 131.361 11.915 127.581 13.655C126.531 14.135 125.691 14.45 125.061 14.6C125.001 14.63 124.896 14.645 124.746 14.645C123.756 16.355 122.811 18.05 121.911 19.73C121.011 21.38 120.171 23.03 119.391 24.68C123.681 17.42 127.341 13.79 130.371 13.79C131.481 13.79 132.036 14.315 132.036 15.365C132.036 17.075 130.746 18.455 128.166 19.505C127.896 19.625 127.521 19.76 127.041 19.91C126.561 20.06 125.961 20.225 125.241 20.405H125.331C125.661 20.405 125.946 20.675 126.186 21.215C126.246 21.425 126.306 21.65 126.366 21.89C126.426 22.1 126.456 22.325 126.456 22.565C126.456 23.135 126.321 23.96 126.051 25.04C125.931 25.61 125.841 26.105 125.781 26.525C125.721 26.915 125.691 27.245 125.691 27.515C125.691 28.355 126.051 28.775 126.771 28.775C127.911 28.775 129.171 27.815 130.551 25.895C131.061 25.265 131.511 24.605 131.901 23.915C132.321 23.225 132.756 22.46 133.206 21.62C133.266 21.5 133.371 21.425 133.521 21.395C133.671 21.365 133.671 21.485 133.521 21.755C133.101 22.595 132.651 23.405 132.171 24.185C131.721 24.965 131.226 25.7 130.686 26.39C129.216 28.28 127.806 29.225 126.456 29.225C124.476 29.225 123.486 28.445 123.486 26.885C123.486 26.255 123.666 25.34 124.026 24.14C124.386 22.91 124.566 22.025 124.566 21.485C124.566 20.765 124.161 20.405 123.351 20.405C123.231 20.405 123.171 20.36 123.171 20.27C123.171 20.15 123.261 20.09 123.441 20.09C123.981 20.06 124.536 19.97 125.106 19.82C125.706 19.64 126.306 19.385 126.906 19.055C128.046 18.485 128.991 17.75 129.741 16.85C130.431 15.98 130.776 15.26 130.776 14.69C130.776 14.33 130.566 14.15 130.146 14.15C129.156 14.15 127.791 14.975 126.051 16.625C125.421 17.225 124.821 17.84 124.251 18.47C123.711 19.07 123.186 19.715 122.676 20.405C121.566 21.875 120.306 23.9 118.896 26.48C118.716 26.78 118.506 27.155 118.266 27.605C118.056 28.025 117.801 28.505 117.501 29.045C117.501 29.045 117.486 29.045 117.456 29.045C117.456 29.075 117.441 29.09 117.411 29.09C117.201 28.91 117.006 28.82 116.826 28.82C116.526 28.82 116.286 28.91 116.106 29.09C115.896 29.27 115.776 29.36 115.746 29.36ZM125.016 14.24H125.106C127.086 13.73 129.246 12.485 131.586 10.505C135.576 7.175 137.571 4.46 137.571 2.36C137.571 1.64 137.196 1.28 136.446 1.28C134.736 1.28 132.576 3.035 129.966 6.545C129.396 7.295 128.706 8.315 127.896 9.605C127.086 10.865 126.126 12.41 125.016 14.24Z" fill="#211A93"/>
</svg>
